<svg id="Layer_1" data-name="Layer 1" xmlns="http://www.w3.org/2000/svg" viewBox="0 0 50 50"><defs><style>.cls-1,.cls-2,.cls-3{fill:#fff;}.cls-1{fill-rule:evenodd;}.cls-2{font-size:15px;}.cls-2,.cls-3{font-family:StencilStd, Stencil Std;}.cls-3{font-size:12.32px;}.cls-4{letter-spacing:-0.02em;}.cls-5{letter-spacing:0em;}</style></defs><title>icons</title><path class="cls-1" d="M6.92,38.68a3.27,3.27,0,0,0-2.39-3.77c-1.64-.62-2.12-1.7-1.25-3.25,1-1.85.59-3.35-1-4.66-1.29-1.09-1.25-2.22,0-3.33A3.46,3.46,0,0,0,3,18.94a2,2,0,0,1,1.13-3.18,3.4,3.4,0,0,0,2.25-4.21C6.11,10,6.78,9.1,8.36,9a3.66,3.66,0,0,0,3.8-3.43c.26-1.5,1.23-2,2.63-1.52a3.46,3.46,0,0,0,4.59-1.77,1.83,1.83,0,0,1,3-.66c1.77,1.4,3.38,1.41,5.07-.07a1.75,1.75,0,0,1,3,.45,3.55,3.55,0,0,0,4.8,1.68A1.72,1.72,0,0,1,37.82,5c.51,2.3,1.76,3.48,4.2,3.42a1.64,1.64,0,0,1,1.76,2.12,3.84,3.84,0,0,0,2.82,4.65,1.65,1.65,0,0,1,1,2.58,3.74,3.74,0,0,0,1,5.31,1.67,1.67,0,0,1,.12,2.77c-1.74,1.58-2.11,3.25-.9,5.35.72,1.27.2,2.32-1.16,2.86a3.49,3.49,0,0,0-2.35,4.34c.27,1.43-.31,2.37-1.84,2.42-2.33.08-3.54,1.29-3.93,3.52A1.72,1.72,0,0,1,36,45.85a3.56,3.56,0,0,0-4.75,1.8,1.84,1.84,0,0,1-3,.54c-1.7-1.32-3.28-1.36-4.91.08-1.21,1.06-2.31.88-3.13-.48a3.47,3.47,0,0,0-4.65-1.63c-1.55.57-2.45-.07-2.77-1.56a3.56,3.56,0,0,0-4-3.14C6.89,41.47,6.78,40.12,6.92,38.68Zm18.42,6A19.69,19.69,0,1,0,5.65,25.09,19.62,19.62,0,0,0,25.34,44.64Z"/><text class="cls-2" transform="matrix(0.85, -0.52, 0.52, 0.85, 14.97, 29.38)">1½</text><text class="cls-3" transform="matrix(0.85, -0.52, 0.52, 0.85, 21.71, 40.78)">S<tspan class="cls-4" x="7.77" y="0">a</tspan><tspan class="cls-5" x="16.11" y="0">t</tspan></text></svg>