<svg id="Layer_1" data-name="Layer 1" xmlns="http://www.w3.org/2000/svg" viewBox="0 0 50 50"><defs><style>.cls-1,.cls-2,.cls-3{fill:#fff;}.cls-1{fill-rule:evenodd;}.cls-2{font-size:15px;}.cls-2,.cls-3{font-family:StencilStd, Stencil Std;}.cls-3{font-size:12.32px;}.cls-4{letter-spacing:-0.02em;}.cls-5{letter-spacing:0em;}</style></defs><title>icons</title><path class="cls-1" d="M6.56,38.74A3.28,3.28,0,0,0,4.16,35C2.53,34.35,2,33.27,2.91,31.72c1-1.85.6-3.35-1-4.66C.67,26,.7,24.83,1.94,23.73A3.46,3.46,0,0,0,2.67,19a2,2,0,0,1,1.12-3.19A3.4,3.4,0,0,0,6.05,11.6,1.85,1.85,0,0,1,8,9.09a3.68,3.68,0,0,0,3.8-3.44c.25-1.49,1.22-2,2.63-1.51A3.46,3.46,0,0,0,19,2.36a1.83,1.83,0,0,1,3-.65c1.76,1.4,3.38,1.41,5.06-.08a1.76,1.76,0,0,1,3,.45,3.55,3.55,0,0,0,4.8,1.68,1.73,1.73,0,0,1,2.59,1.33c.5,2.3,1.75,3.48,4.19,3.42,1.32,0,2,.84,1.77,2.11a3.84,3.84,0,0,0,2.81,4.65,1.65,1.65,0,0,1,1,2.58,3.74,3.74,0,0,0,1,5.31,1.67,1.67,0,0,1,.12,2.77c-1.74,1.59-2.1,3.26-.9,5.36.72,1.26.21,2.31-1.15,2.86a3.47,3.47,0,0,0-2.36,4.33c.27,1.43-.31,2.37-1.83,2.43-2.33.08-3.54,1.28-3.93,3.52a1.72,1.72,0,0,1-2.5,1.47,3.58,3.58,0,0,0-4.76,1.8,1.84,1.84,0,0,1-3,.55,3.43,3.43,0,0,0-4.91.07,1.81,1.81,0,0,1-3.12-.47,3.47,3.47,0,0,0-4.65-1.63c-1.55.56-2.46-.07-2.78-1.56-.46-2.2-1.76-3.16-4-3.15C6.53,41.53,6.42,40.17,6.56,38.74ZM25,44.69A19.69,19.69,0,1,0,5.28,25.14,19.62,19.62,0,0,0,25,44.69Z"/><text class="cls-2" transform="matrix(0.85, -0.52, 0.52, 0.85, 20.6, 25.43)">1</text><text class="cls-3" transform="matrix(0.85, -0.52, 0.52, 0.85, 21.34, 40.84)">S<tspan class="cls-4" x="7.77" y="0">a</tspan><tspan class="cls-5" x="16.11" y="0">t</tspan></text></svg>