<svg id="Layer_1" data-name="Layer 1" xmlns="http://www.w3.org/2000/svg" viewBox="0 0 50 50"><defs><style>.cls-1,.cls-2,.cls-3{fill:#fff;}.cls-1{fill-rule:evenodd;}.cls-2{font-size:15px;}.cls-2,.cls-3{font-family:StencilStd, Stencil Std;}.cls-3{font-size:12.32px;}.cls-4{letter-spacing:-0.02em;}.cls-5{letter-spacing:0em;}</style></defs><title>icons</title><path class="cls-1" d="M6.56,38.24a3.28,3.28,0,0,0-2.4-3.78C2.53,33.85,2,32.77,2.91,31.22c1-1.85.6-3.35-1-4.66-1.29-1.09-1.26-2.23,0-3.33a3.46,3.46,0,0,0,.73-4.73,2,2,0,0,1,1.12-3.19A3.4,3.4,0,0,0,6.05,11.1,1.85,1.85,0,0,1,8,8.59a3.68,3.68,0,0,0,3.8-3.44c.25-1.49,1.22-2,2.63-1.51A3.46,3.46,0,0,0,19,1.86a1.83,1.83,0,0,1,3-.65c1.76,1.4,3.38,1.41,5.06-.08a1.76,1.76,0,0,1,3,.45,3.55,3.55,0,0,0,4.8,1.68,1.73,1.73,0,0,1,2.59,1.33C38,6.89,39.21,8.07,41.65,8c1.32,0,2,.84,1.77,2.11a3.84,3.84,0,0,0,2.81,4.65,1.65,1.65,0,0,1,1,2.58,3.74,3.74,0,0,0,1,5.31,1.67,1.67,0,0,1,.12,2.77c-1.74,1.59-2.1,3.26-.9,5.36.72,1.26.21,2.31-1.15,2.86A3.47,3.47,0,0,0,43.91,38c.27,1.43-.31,2.37-1.83,2.43-2.33.08-3.54,1.28-3.93,3.52a1.72,1.72,0,0,1-2.5,1.47,3.58,3.58,0,0,0-4.76,1.8,1.84,1.84,0,0,1-3,.55,3.43,3.43,0,0,0-4.91.07,1.81,1.81,0,0,1-3.12-.47,3.47,3.47,0,0,0-4.65-1.63c-1.55.57-2.46-.07-2.78-1.56C11.94,42,10.64,41,8.41,41,6.53,41,6.42,39.67,6.56,38.24ZM25,44.19A19.69,19.69,0,1,0,5.28,24.64,19.62,19.62,0,0,0,25,44.19Z"/><text class="cls-2" transform="matrix(0.85, -0.52, 0.52, 0.85, 19.6, 24.93)">2</text><text class="cls-3" transform="matrix(0.85, -0.52, 0.52, 0.85, 21.34, 40.34)">S<tspan class="cls-4" x="7.77" y="0">a</tspan><tspan class="cls-5" x="16.11" y="0">t</tspan></text></svg>