<svg id="Layer_1" data-name="Layer 1" xmlns="http://www.w3.org/2000/svg" viewBox="0 0 150 150"><defs><style>.cls-1{fill:#fff;fill-rule:evenodd;}</style></defs><title>icons</title><path class="cls-1" d="M137.57,124.19H12.83V122.4q0-44-.09-87.91c0-1.55.29-2.07,2-2.07q60.53.07,121,0c1.49,0,2,.32,2,1.9q-.09,44.12-.1,88.23C137.64,123.08,137.6,123.6,137.57,124.19ZM23.23,38.66c.33.38.48.58.66.75Q46.17,61.73,68.48,84a21,21,0,0,0,2.81,2.34,6.3,6.3,0,0,0,7.84,0,28.88,28.88,0,0,0,3.61-3.11q21.75-21.73,43.47-43.5c.31-.31.6-.66,1-1.14ZM127,118.11,91.43,82.47a57,57,0,0,1-4.08,4.32,85.69,85.69,0,0,1-7.93,6.31,7.12,7.12,0,0,1-8.28,0,90.25,90.25,0,0,1-8.06-6.41,55,55,0,0,1-3.94-4.12c-12,12-23.74,23.81-35.41,35.5ZM19.05,113.35l35-34.92-35-35.12Zm112.38-70-35,35.1,35,34.92Z"/></svg>