<svg id="Layer_1" data-name="Layer 1" xmlns="http://www.w3.org/2000/svg" viewBox="0 0 150 150"><defs><style>.cls-1{fill:#fff;fill-rule:evenodd;}</style></defs><title>icons</title><path class="cls-1" d="M15.76,113.67c1.34-3.06,2.56-5.57,3.56-8.17,2.15-5.57,4.32-11.14,5-17.15.31-2.6-.54-4.6-2-6.8A55,55,0,0,1,17.13,71a35,35,0,0,1-1.79-16.64,39.55,39.55,0,0,1,4.65-15c5.41-9.67,13.43-16.5,23.31-21.08a62.45,62.45,0,0,1,18-5.11,64.4,64.4,0,0,1,24.41,1.41c4.53,1.14,8.84,3.25,13.15,5.16a45,45,0,0,1,12.87,9.29,43.87,43.87,0,0,1,10.7,16.8c2.12,5.85,2.15,11.85,1.77,17.9a20.62,20.62,0,0,1-1,5.27c-.46,1.37.14,2,1,2.67a33.44,33.44,0,0,1,9.15,9.77,26.64,26.64,0,0,1,2.91,21.23,28.15,28.15,0,0,1-4.42,9.34,4.38,4.38,0,0,0-.72,2.67,27.35,27.35,0,0,0,2.67,10.54c1.09,2.23,1.8,4.65,2.71,7.08a2.06,2.06,0,0,1-.89.18c-7-1.51-14-3.17-20.5-6.36a8.81,8.81,0,0,0-6.19-.58,45,45,0,0,1-17.11.07,36.13,36.13,0,0,1-13.94-5.39c-5.37-3.53-9.67-8-12.11-14a3.5,3.5,0,0,0-3.22-2.39c-3-.32-6-.86-9.08-1.1a8,8,0,0,0-4,.58A107.2,107.2,0,0,1,27.41,111c-2.84.68-5.65,1.53-8.48,2.25A29.57,29.57,0,0,1,15.76,113.67Zm52-19.27a62.74,62.74,0,0,0,19.5-2.85A32.93,32.93,0,0,0,99.4,85.26c3-2.57,6.23-5.15,8.54-8.31,5-6.82,7.34-14.39,5.85-23.1a32,32,0,0,0-9.3-17.59A42.19,42.19,0,0,0,84.6,25,39.53,39.53,0,0,0,80.05,24,109.13,109.13,0,0,0,68,22.86c-3.06,0-6.12.92-9.2,1.28a36.21,36.21,0,0,0-12.19,4c-8.94,4.53-15.88,11-19.55,20.59a27.41,27.41,0,0,0-.81,17.63,33.05,33.05,0,0,0,8.51,14.15,3.76,3.76,0,0,1,1,2.83c-.91,4.49-2.08,8.94-3.12,13.41A16.35,16.35,0,0,0,32.39,99a6,6,0,0,0,2.39,0c4.83-2.06,9.6-4.27,14.43-6.33A7.43,7.43,0,0,1,52.93,92C57.88,92.65,62.79,93.57,67.72,94.4ZM129,97.11c0-8-3.1-13.14-7.93-17.46-1.36-1.21-2-1.05-3,.49s-1.91,3.06-3,4.44A50.92,50.92,0,0,1,97,98.72a75.29,75.29,0,0,1-12.2,4.07,69.7,69.7,0,0,1-8,1.17c-2.39.36-2.8,1.14-1.34,3a32.47,32.47,0,0,0,4.76,5.1c6.25,5.09,13.63,6.75,21.51,6.4,2.6-.12,5.18-.76,7.78-1a9.31,9.31,0,0,1,4,.16c3,1.08,5.79,2.52,8.71,3.74a7.44,7.44,0,0,0,2,.27,10.67,10.67,0,0,0,0-2c-.48-2.4-1.19-4.77-1.48-7.19a4.47,4.47,0,0,1,1-3C126.86,105.39,129.21,101.15,129,97.11Z"/></svg>