<svg id="Layer_1" data-name="Layer 1" xmlns="http://www.w3.org/2000/svg" viewBox="0 0 150 150"><defs><style>.cls-1{fill:#fff;}</style></defs><path class="cls-1" d="M144.7,66.7a2.49,2.49,0,0,0-3.39-1c-4.24,2.26-7.32,4.9-9.21,7.89a17.56,17.56,0,0,0-7,3,44.71,44.71,0,0,0-9.17-15A48.25,48.25,0,0,0,101,50.56a56.15,56.15,0,0,0-20.94-5.2C68.81,44.7,59,45.9,50.73,48.92a47.16,47.16,0,0,0-16.86-3.08c-7.4.15-9.85,2.34-10.64,3.63a3.91,3.91,0,0,0,.94,5.11,49.4,49.4,0,0,1,7.31,7.68,60.81,60.81,0,0,0-7.41,11,19.87,19.87,0,0,1-11.76,9.51C11,83.18,8.14,84,8.1,86.53c-.06,3,0,4.44.12,7.27,0,.8.08,1.73.12,2.85,0,.48,0,.95.05,1.4.12,3.55.21,6.12,1.71,7.67.71.73,2.1,1.71,9.66,4.17a33,33,0,0,1,9.71,5.1,53.72,53.72,0,0,0,5.66,3.72,12.92,12.92,0,0,1,5.68,6.78l1.78,4.87a6.48,6.48,0,0,0,6,4.24l9,.66h.18a6.47,6.47,0,0,0,6.46-6.46v-1.24c.68.06,1.37.11,2,.15l.33,0,.39,0,.42,0A80.11,80.11,0,0,0,87,126.58v2.23a6.47,6.47,0,0,0,6.46,6.46h.19l8.68-.66a6.45,6.45,0,0,0,6.12-4.75,94.76,94.76,0,0,1,11.94-21.69,34.43,34.43,0,0,0,6.72-18.55,31,31,0,0,0-.58-7.86,15.54,15.54,0,0,1,3.37-2.26c0,.32-.06.63-.08,1-.28,4.69,2.6,8.4,6.68,8.64h.39A6.31,6.31,0,0,0,142,86.51a8.06,8.06,0,0,0,1.65-4.18,8.92,8.92,0,0,0-1.06-4.94,7.66,7.66,0,0,0-4.35-3.45,23.35,23.35,0,0,1,5.43-3.84A2.5,2.5,0,0,0,144.7,66.7ZM120.07,89.35a28.36,28.36,0,0,1-5.55,15.28,96.45,96.45,0,0,0-12.14,22.1,1.71,1.71,0,0,0-.09.3,1.37,1.37,0,0,1-1.34,1.05h-.19l-8.31.64a1.38,1.38,0,0,1-1.31-1.38v-5.13a2.41,2.41,0,0,0-3-2.35,71.58,71.58,0,0,1-20.47,1.67l-.35,0h-.49l-.25,0c-.68,0-1.38-.09-2.07-.15s-1.55-.14-2.34-.23a2.42,2.42,0,0,0-2.69,2.4v3.86a1.38,1.38,0,0,1-1.31,1.38l-8.65-.64h-.17a1.39,1.39,0,0,1-1.3-.9l-1.72-4.69a17.16,17.16,0,0,0-7.6-9,49.41,49.41,0,0,1-4.93-3.24,36.54,36.54,0,0,0-10.76-5.65c-5.21-1.69-6.8-2.49-7.25-2.76a23.85,23.85,0,0,1-.35-4.2c0-.44,0-.9-.05-1.38,0-1.08-.08-2-.11-2.76-.1-2.3-.16-3.53-.14-5.56l.62-.2A24,24,0,0,0,30,76.21a51.78,51.78,0,0,1,7.68-11,2.41,2.41,0,0,0,.3-2.88,41.76,41.76,0,0,0-8-9.17,17.75,17.75,0,0,1,5.86-.79h0a41.32,41.32,0,0,1,14.67,3,2.41,2.41,0,0,0,1.77,0c7.42-2.9,16.53-4.06,27.07-3.44a49.28,49.28,0,0,1,18.35,4.54,41.76,41.76,0,0,1,12.89,9.44A38.42,38.42,0,0,1,118,77.73,28,28,0,0,1,120.07,89.35ZM138.64,82a3.11,3.11,0,0,1-.61,1.41,1.3,1.3,0,0,1-1.19.63,1.71,1.71,0,0,1-1.4-.84,4.12,4.12,0,0,1-.57-2.49,8.68,8.68,0,0,1,.45-2.31,3.53,3.53,0,0,1,2.91,1.46A4,4,0,0,1,138.64,82Z"/><circle class="cls-1" cx="38.66" cy="83.51" r="4.5" transform="translate(-46.81 49.39) rotate(-43.39)"/><path class="cls-1" d="M90.75,60.89a42.36,42.36,0,0,0-10.92-2.3c-1.29-.1-2.56-.17-3.8-.2a57.16,57.16,0,0,0-15.52,1.5c-1.27.32-2.1,1.94-1.86,3.63s1.45,2.8,2.71,2.48a53.8,53.8,0,0,1,14.57-1.4c1.18,0,2.4.1,3.62.19a39,39,0,0,1,10,2.1,1.59,1.59,0,0,0,.6.11,2.54,2.54,0,0,0,2.24-2.3C92.73,63,92,61.34,90.75,60.89Z"/><path class="cls-1" d="M75.54,40.53A12.53,12.53,0,1,1,88.07,28,12.54,12.54,0,0,1,75.54,40.53Zm0-20A7.5,7.5,0,1,0,83,28,7.51,7.51,0,0,0,75.54,20.5Z"/></svg>