<svg id="Layer_1" data-name="Layer 1" xmlns="http://www.w3.org/2000/svg" viewBox="0 0 150 150"><defs><style>.cls-1{fill:#fff;fill-rule:evenodd;}</style></defs><title>icons</title><path class="cls-1" d="M102.52,16.87l4.06,1.56L99.11,38l5.14,10.32.08,0,4.71,4,14.76,4.23a4.58,4.58,0,0,1,1.56.78,4.37,4.37,0,0,1,1.07,1.34L138,80.19l-3.76,2L119.7,64.35l-1.47-.43a5.85,5.85,0,0,1-.77,2.42,4.14,4.14,0,0,1-2.68,2,9.36,9.36,0,0,0-2,2.07,1,1,0,0,1-.13.18l.39,2.59a16.42,16.42,0,0,0,3.46,7.16q1.55,2,5.78,7.25a10.87,10.87,0,0,0,1.64,1.64,6.91,6.91,0,0,0,2.42,1.47,11.5,11.5,0,0,0,5.26.69l2.77-.6a2.92,2.92,0,0,1-.7,2.33,23.84,23.84,0,0,1-1.81,2.07v.09a3.66,3.66,0,0,1-1,2.07A4,4,0,0,1,127.86,99l.21.22c0,.7-.77,1.43-2.33,2.2a2.5,2.5,0,0,1-.95,1.16,5.81,5.81,0,0,1-3.54,1h-.43q1,4.6,1.69,9.32c0,.21,0,.41,0,.61l-4.32,29.44h-4.31V113.77l-.09-.56c-.08.17-.17.34-.26.52a4.36,4.36,0,0,1-5.39,2.16L84.05,102.07l1.55-4,21.71,8.24a22.58,22.58,0,0,0,.82-3q-4.63-1.56-8.11-7.73T96.48,85a9.17,9.17,0,0,1,.34-2.67,13.16,13.16,0,0,0,.35-3.63l-.09-3.28A36.56,36.56,0,0,1,96,53.35a7.48,7.48,0,0,1,.43-1.26l-5.92-12a4.35,4.35,0,0,1-.43-1.69,4.5,4.5,0,0,1,.26-1.73Zm18.65,10.45a11.19,11.19,0,0,1,8.11,3.28q3.28,2.07,4.66,7.6a28.14,28.14,0,0,1-.43,4.92,7.12,7.12,0,0,0,1,4.83c.81,1.15,1.47,1.76,2,1.81a3.08,3.08,0,0,0,1.55-.34,5.51,5.51,0,0,1-.86,2.33,8,8,0,0,1-4.32,2.76q-2.76.87-7.08-1.29l-3.88-2.42h-.69a11.64,11.64,0,0,1-11.74-11.74,11.31,11.31,0,0,1,3.45-8.29,11.94,11.94,0,0,1,8.29-3.45Z"/><path class="cls-1" d="M75.92,6.69,80,8.16,74.37,35.09a4.53,4.53,0,0,1-1.64,2.07L62.11,44.33l1,38.58q.09.78,5.53,13.3,2.67,6.21,5.35,12.25l.08.35,14.08,34.1H78.69L68.33,117.7,56,96.38,44.76,115.8l-9.41,27.11H26.29l12.17-35.57.35-.69Q49.51,85.5,49.42,84.9L44.5,65.13l-7,11.48a5.9,5.9,0,0,1-1.73,1.56L12.22,86.62l-2.51-5L30.78,71,44.24,49.16l4-4.66q4.07-4.57,4.66-4.4l13.9-9.41ZM40.62,21a10.29,10.29,0,0,1,7.59,3.11,10.46,10.46,0,0,1,3.2,7.68,10.18,10.18,0,0,1-3.2,7.59,10.18,10.18,0,0,1-7.59,3.2,10.46,10.46,0,0,1-7.68-3.2,10.29,10.29,0,0,1-3.11-7.59A10.62,10.62,0,0,1,40.62,21Z"/></svg>