<svg id="Layer_1" data-name="Layer 1" xmlns="http://www.w3.org/2000/svg" viewBox="0 0 48 48.02"><defs><style>.cls-1,.cls-2,.cls-3{fill:#fff;}.cls-1{fill-rule:evenodd;}.cls-2{font-size:15px;}.cls-2,.cls-3{font-family:StencilStd, Stencil Std;}.cls-3{font-size:12.32px;}.cls-4{letter-spacing:-0.02em;}.cls-5{letter-spacing:0em;}</style></defs><title>icons</title><path class="cls-1" d="M5.56,37.75A3.28,3.28,0,0,0,3.16,34C1.53,33.36,1,32.28,1.91,30.73c1-1.85.6-3.35-.95-4.66C-.33,25-.3,23.84.94,22.74A3.46,3.46,0,0,0,1.67,18a2,2,0,0,1,1.12-3.19,3.4,3.4,0,0,0,2.26-4.21A1.85,1.85,0,0,1,7,8.1a3.68,3.68,0,0,0,3.8-3.44c.25-1.49,1.22-2,2.63-1.51A3.46,3.46,0,0,0,18,1.37a1.83,1.83,0,0,1,3-.65c1.76,1.4,3.38,1.41,5.06-.08a1.76,1.76,0,0,1,3,.45,3.55,3.55,0,0,0,4.8,1.68A1.73,1.73,0,0,1,36.46,4.1c.5,2.3,1.75,3.48,4.19,3.42,1.32,0,2,.84,1.77,2.12a3.84,3.84,0,0,0,2.81,4.64,1.64,1.64,0,0,1,1,2.58,3.76,3.76,0,0,0,1,5.32,1.67,1.67,0,0,1,.12,2.76c-1.74,1.59-2.1,3.26-.9,5.36.72,1.26.21,2.31-1.15,2.86a3.47,3.47,0,0,0-2.36,4.33c.27,1.43-.31,2.37-1.83,2.43-2.33.08-3.54,1.28-3.93,3.52a1.72,1.72,0,0,1-2.5,1.47,3.58,3.58,0,0,0-4.76,1.8,1.84,1.84,0,0,1-3,.55,3.43,3.43,0,0,0-4.91.07c-1.21,1.07-2.31.88-3.12-.47a3.47,3.47,0,0,0-4.65-1.63c-1.55.56-2.46-.07-2.78-1.56-.46-2.2-1.76-3.16-4-3.15C5.53,40.54,5.41,39.18,5.56,37.75ZM24,43.7A19.69,19.69,0,1,0,4.28,24.15,19.62,19.62,0,0,0,24,43.7Z"/><text class="cls-2" transform="matrix(0.85, -0.52, 0.52, 0.85, 18.6, 25.44)">½</text><text class="cls-3" transform="matrix(0.85, -0.52, 0.52, 0.85, 20.34, 39.85)">S<tspan class="cls-4" x="7.77" y="0">a</tspan><tspan class="cls-5" x="16.11" y="0">t</tspan></text></svg>