<svg id="Layer_1" data-name="Layer 1" xmlns="http://www.w3.org/2000/svg" viewBox="0 0 150 150"><defs><style>.cls-1{fill:#fff;}</style></defs><title>icons</title><path class="cls-1" d="M13.9,39.25v-4.2c1.75-3.37,4.75-4.37,8.13-3.59a38.38,38.38,0,0,1,9.58,3.3C37.44,37.9,43.06,41.44,48.67,45a4.46,4.46,0,0,0,4.78.42C63.33,41,73.28,36.79,83.2,32.47q16.3-7.08,32.59-14.22h1l11,6.55L77,62.44a3.28,3.28,0,0,0,.45.53C88.76,70,100.1,77.12,111.49,84.11a3.58,3.58,0,0,0,2.81-.1c5.1-2.3,10.1-4.8,15.21-7.05A5.23,5.23,0,0,1,133,77a62.28,62.28,0,0,1,5.88,2.7v1c-4.69,4.69-9.44,9.31-14,14.13a12.3,12.3,0,0,0-2.74,4.85c-1.81,6.25-3.36,12.58-5.1,19.2-1.94-1.12-3.52-2.21-5.24-3-1.93-.87-2.56-2.3-2.73-4.28-.43-5.23-1-10.44-1.46-15.66a3.46,3.46,0,0,0-2.15-3.18c-11.15-5.63-22.24-11.35-33.36-17-.66-.33-1.36-.57-2.3-1l-6,63.16h-.52c-3.13-1.91-6.31-3.72-9.33-5.78a5.09,5.09,0,0,1-2-3c-.75-4.3-1.19-8.66-1.77-13C47.74,98.5,45.33,80.76,43,63a4.12,4.12,0,0,0-2.35-3.38c-5.79-3.42-11.45-7.08-17.29-10.4C19.15,46.82,15.61,44,13.9,39.25Z"/></svg>