<svg id="Layer_1" data-name="Layer 1" xmlns="http://www.w3.org/2000/svg" viewBox="0 0 150 150"><defs><style>.cls-1{fill:#fff;fill-rule:evenodd;}</style></defs><title>icons</title><path class="cls-1" d="M58.06,141.82A63,63,0,0,1,11.85,81.56c-.11-31.69,25.28-59.82,56.27-62.35,33.43-2.73,62.37,19.55,67.86,51.91,5.8,34.21-17.93,67.32-52.68,72.28a73.4,73.4,0,0,1-12.12.47A75,75,0,0,1,58.06,141.82Zm70.88-60.33a54.55,54.55,0,1,0-54.53,54.7A54.68,54.68,0,0,0,128.94,81.49Z"/><path class="cls-1" d="M54,6.88,63.51,15c-.11.29-.22.59-.32.88A74.41,74.41,0,0,0,22.11,38.51c-4-9.17-4.85-11.13,2.3-18.42A46.55,46.55,0,0,1,47.2,7.42C47.69,7.3,52.45,6.48,54,6.88Z"/><path class="cls-1" d="M70.54,77.55V74.31c0-12.39,0-24.78,0-37.18,0-4.1,2.65-6.29,5.57-4.48a5.38,5.38,0,0,1,2.1,3.91c.15,14.71.14,29.42.07,44.13,0,3-1.8,4.71-4.92,4.72q-21.79.09-43.59,0c-2.84,0-4.75-1.83-4.66-4.06s2-3.78,4.91-3.79c12.4,0,24.79,0,37.18,0Z"/><path class="cls-1" d="M94.89,6.88,85.37,15c.11.29.21.59.32.88a74.41,74.41,0,0,1,41.08,22.59c4-9.17,4.85-11.13-2.3-18.42A46.59,46.59,0,0,0,101.68,7.42C101.19,7.3,96.43,6.48,94.89,6.88Z"/></svg>