<svg id="Layer_1" data-name="Layer 1" xmlns="http://www.w3.org/2000/svg" viewBox="0 0 150 150"><defs><style>.cls-1{fill:#fff;fill-rule:evenodd;}</style></defs><title>icons</title><path class="cls-1" d="M83,135.25c-.55,0-1,.08-1.36.08-7.72,0-15.44,0-23.15,0-1.24,0-1.54-.36-1.54-1.57Q57,85.9,57,38c0-1.24.29-1.67,1.61-1.66q11.49.09,23,0c1.25,0,1.54.4,1.54,1.59q0,48,0,95.91C83.09,134.26,83.05,134.67,83,135.25Z"/><path class="cls-1" d="M117.07,63.35v3q0,33.44,0,66.89c0,2.05,0,2.05-2,2.05h-24v-72Z"/><path class="cls-1" d="M15.63,14.68c1.16,0,1.18,1.43,1.18,2.06q0,58.83,0,117.65c0,2.08,0,2.08,2.08,2.08H136.5v5.09h-125V140q0-61.8,0-123.6c0-1.29.1-1.72,1.66-1.72Z"/><path class="cls-1" d="M49.47,135.25H23.53c0-.52-.09-1-.09-1.42,0-5.36,0-10.72,0-16.07,0-1.24.38-1.56,1.58-1.55q11.51.08,23,0c1.2,0,1.6.29,1.58,1.54-.07,5.36,0,10.71,0,16.08C49.54,134.27,49.5,134.72,49.47,135.25Z"/></svg>