<svg id="Layer_1" data-name="Layer 1" xmlns="http://www.w3.org/2000/svg" viewBox="0 0 150 150"><defs><style>.cls-1{fill:#fff;}</style></defs><path class="cls-1" d="M98.48,98.48l-.07.07a9.22,9.22,0,0,0,0,13.06l24.19,24.19a9.22,9.22,0,0,0,13,0l.19-.19a9.22,9.22,0,0,0,0-13L111.61,98.38a9.22,9.22,0,0,0-13.06,0Z"/><path class="cls-1" d="M88.05,42.57h0a8.51,8.51,0,0,0,1,0h0A6.49,6.49,0,0,0,91.18,42c-.21-.39-.43-.77-.65-1.14A35.82,35.82,0,0,0,85.11,34c-.34-.34-.69-.68-1-1l-.89-.8A6.53,6.53,0,0,0,82,36,6.64,6.64,0,0,0,88.05,42.57Z"/><path class="cls-1" d="M85.11,85.11A35.76,35.76,0,0,0,91,77.39a36.23,36.23,0,0,0,1.93-31.77H81.76A2.79,2.79,0,0,0,79,48.41c0,17.75,0,16.52.1,17l-.1.1a2.78,2.78,0,0,0,2.66,2h.29V83.2A6.55,6.55,0,0,0,83.11,87l1-.85C84.42,85.79,84.77,85.45,85.11,85.11Z"/><path class="cls-1" d="M59,40.69h0a10.46,10.46,0,0,0,1.12,0h0a7.37,7.37,0,0,0,6.74-7.35,7.26,7.26,0,0,0-3.12-6l0-.08a7.53,7.53,0,0,0-8.44,0l0,.08a7.25,7.25,0,0,0-3.13,6A7.38,7.38,0,0,0,59,40.69Z"/><path class="cls-1" d="M70.19,47.17a3.1,3.1,0,0,0-3.1-3.1H52a3.1,3.1,0,0,0-3.11,3.1c0,19.73,0,18.36.12,18.94l-.12.11a3.11,3.11,0,0,0,3,2.17h.32V85.83a7.38,7.38,0,0,0,14.75,0V68.39h.32a3.1,3.1,0,0,0,3-2.17l-.11-.11C70.24,65.53,70.19,66.9,70.19,47.17Z"/><path class="cls-1" d="M30,42.58a8.51,8.51,0,0,0,1,0h0A6.64,6.64,0,0,0,37.1,36a6.53,6.53,0,0,0-1.19-3.8L35,33c-.35.33-.71.67-1,1a35.82,35.82,0,0,0-5.42,6.92q-.35.55-.66,1.14a6.61,6.61,0,0,0,2.13.54Z"/><path class="cls-1" d="M37.16,67.5h.29a2.79,2.79,0,0,0,2.66-2l-.1-.1c.14-.52.1.71.1-17a2.79,2.79,0,0,0-2.79-2.79H26.16A36.1,36.1,0,0,0,34,85.11c.33.34.69.68,1.05,1s.63.57.95.85a6.55,6.55,0,0,0,1.19-3.77Z"/><path class="cls-1" d="M104.06,77.61A48,48,0,0,0,68.71,12.38a48.62,48.62,0,0,0-9.17-.88h0A48.17,48.17,0,0,0,41.46,15,48,48,0,0,0,12.38,50.37,48.12,48.12,0,0,0,15,77.61,48,48,0,0,0,50.37,106.7a48.54,48.54,0,0,0,9.17.88h0a48.07,48.07,0,0,0,18.07-3.52,47.87,47.87,0,0,0,9.8-5.39,5.17,5.17,0,0,1,6.64.56l5.15,5.14,5.17-5.17-5.14-5.15a5.15,5.15,0,0,1-.56-6.64A47.87,47.87,0,0,0,104.06,77.61Zm-8.87,2.16a40.83,40.83,0,0,1-6.67,8.75c-.39.39-.79.78-1.19,1.15a41,41,0,0,1-55.58,0c-.41-.37-.8-.76-1.2-1.15a41,41,0,0,1,0-58c.39-.39.79-.76,1.19-1.14a41.05,41.05,0,0,1,55.59,0c.41.37.8.75,1.19,1.14a41,41,0,0,1,6.67,49.22Z"/></svg>