<svg id="Layer_1" data-name="Layer 1" xmlns="http://www.w3.org/2000/svg" viewBox="0 0 147 150"><defs><style>.cls-1{fill:#fff;}</style></defs><path class="cls-1" d="M60.5,96.9h6.71A19.15,19.15,0,0,1,55.28,84.54c-.36,0-.73,0-1.1,0H32.31a18.92,18.92,0,0,0-18.93,18.93V114H36.11A26,26,0,0,1,60.5,96.9Z"/><path class="cls-1" d="M30.08,66.46A13.16,13.16,0,1,0,43.24,53.31,13.16,13.16,0,0,0,30.08,66.46Z"/><path class="cls-1" d="M114.69,84.51H92.82c-.37,0-.74,0-1.1,0A19.15,19.15,0,0,1,79.79,96.9H86.5A26,26,0,0,1,110.89,114h22.73v-10.6a18.92,18.92,0,0,0-18.93-18.93Z"/><path class="cls-1" d="M90.6,66.46a13.16,13.16,0,1,0,13.16-13.15A13.16,13.16,0,0,0,90.6,66.46Z"/><path class="cls-1" d="M86.5,100.34h-26A22.49,22.49,0,0,0,38,122.82v12.61h71V122.82A22.49,22.49,0,0,0,86.5,100.34Z"/><path class="cls-1" d="M57.86,78.89A15.64,15.64,0,1,0,73.5,63.26,15.64,15.64,0,0,0,57.86,78.89Z"/><path class="cls-1" d="M115.05,38.08l2.22-6.83L111.46,27h7.18l2.22-6.83L123.08,27h7.18l-5.81,4.22,2.22,6.83-5.81-4.22-5.81,4.22Zm-12.06,0-5.81-4.22-5.81,4.22,2.22-6.83L87.78,27H95l2.22-6.83L99.4,27h7.18l-5.81,4.22L103,38.08Zm-23.68,0L73.5,33.86l-5.81,4.22,2.22-6.83L64.1,27h7.18L73.5,20.2,75.72,27H82.9l-5.81,4.22,2.22,6.83Zm-23.68,0-5.81-4.22L44,38.08l2.22-6.83L40.42,27H47.6l2.22-6.83L52,27h7.18l-5.81,4.22,2.22,6.83ZM32,38.08l-5.81-4.22-5.81,4.22,2.22-6.83L16.74,27h7.18l2.22-6.83L28.36,27h7.18l-5.81,4.22L32,38.08Zm101.36-.32V21.26c0-3.69-3.27-6.69-7.32-6.69H21.06c-4,0-7.32,3-7.32,6.69v16.5c0,3.7,3.27,6.69,7.32,6.69l47,0L73.5,60.83l5.59-16.38H126c4,0,7.32-3,7.32-6.69Z"/></svg>