<svg id="Layer_1" data-name="Layer 1" xmlns="http://www.w3.org/2000/svg" viewBox="0 0 150 150"><defs><style>.cls-1{fill:#fff;}</style></defs><title>icons</title><path class="cls-1" d="M132,119.75c-.16,4.59-2.51,8.25-7.12,8.25H27.37c-1.1,0-1.77,0-2.87,0-4.41-.15-6.5-2.93-6.5-7V55.57c0-6,2.77-7.57,8.46-7.57h93c5.06,0,12.33.75,12.44,3.87.06,2,.14,3.19.14,5.14v64c0,5,10,5,10,0V57.25a25.42,25.42,0,0,0-1-6.2,16,16,0,0,0-14.82-12.16c-4-.12-7.3.11-10.72.11H25.11A16.84,16.84,0,0,0,8,55.57V121c0,12.22,3,18,17.53,18h98.7c9.09,0,17.77-5.88,17.77-19C142,115.06,132.16,114.83,132,119.75Z"/><path class="cls-1" d="M101.6,88.13a27,27,0,0,1-22.77,26.39C65.94,116.76,53.32,108,49.52,95.84c-4-12.75,2.62-26.14,14.32-31.91s26.39-1,33.45,9.67a26.74,26.74,0,0,1,4.31,14.53c.06,4.93,7.7,4.93,7.64,0A34.26,34.26,0,0,0,51.05,63.62C41.17,73,38.18,88.25,43.2,100.82a34.66,34.66,0,0,0,31,21.58c19.14.77,34.82-15.52,35.07-34.27C109.3,83.19,101.66,83.2,101.6,88.13Z"/><rect class="cls-1" x="59" y="82" width="32" height="11"/><rect class="cls-1" x="69" y="71" width="12" height="34"/><path class="cls-1" d="M59.56,33.82c-.23-10.37,8-17.92,18.22-18.14,10-.22,17.68,8.59,18.08,18.58.2,5,7.83,4.69,7.63-.31-.6-15-11.87-25.7-26-25.91C63,7.82,51.63,20.41,51.93,34.46c.11,4.93,7.73,4.28,7.63-.64Z"/></svg>