<svg id="Layer_1" data-name="Layer 1" xmlns="http://www.w3.org/2000/svg" viewBox="0 0 150 150"><defs><style>.cls-1{fill:#fff;fill-rule:evenodd;}</style></defs><path class="cls-1" d="M16.16,138a42.42,42.42,0,0,1-1.07-6.65q-.11-41.13,0-82.26c0-10.53,4.88-15.41,15.27-15.44,3.56,0,7.12,0,10.68,0,9.36.09,14.33,4.81,14.4,14.3.15,19.46.05,38.93.06,58.4,0,8.16.11,16.33-.07,24.49-.06,2.4-1,4.77-1.46,7.16Zm4-4.18,2.35.25c.39-2.3,1.12-4.59,1.13-6.89.09-21.75-.12-43.52.13-65.27.1-8.68-2.26-17.76,4.63-26.81-8.09,2.35-8.88,7.25-8.89,12.63q0,40.17,0,80.34A51,51,0,0,0,20.14,133.85Z"/><path class="cls-1" d="M26.54,30.6V17.43c6,5,11.76,6.88,17.84-1.49V30.6Z"/><path class="cls-1" d="M44.3,15.31H26.81C28.74,11,40.74,10.68,44.3,15.31Z"/><path class="cls-1" d="M135,56.19c-12.71,0-25.42,0-38.12-.26-1.61,0-3.19-1.47-4.78-2.26,1.59-.79,3.17-2.23,4.77-2.26,12.71-.24,25.42-.2,38.13-.25Z"/><path class="cls-1" d="M101,138c-1.29-2.33-1.3-3.72,2.06-3.67,7.45.14,14.91,0,23,0-.49,1.53-.82,2.58-1.16,3.62Z"/><path class="cls-1" d="M92.59,57.91h41.08c-.88,10.5-1.75,20.8-2.59,31.1s-1.65,20.41-2.56,31.68c-9.73,0-19.26.09-28.77-.17-.83,0-2.19-2.28-2.31-3.58C95.73,97.38,94.2,77.81,92.59,57.91Zm5.58,2.62-1.7,0c-1.67,9.63,3.15,55.69,6.59,58.56C101.4,99.28,99.79,79.91,98.17,60.53Z"/><path class="cls-1" d="M126.28,123.44v10.07c-4.92-2.12-9-5.3-13.17-5.29s-8.15,3.21-13,5.33V123.44Z"/><path class="cls-1" d="M84.91,34.79V56.88H62c.52-7.47,1-14.78,1.54-22.09ZM66.26,36.56l-.86.08V55.5l.86.09Z"/><path class="cls-1" d="M86.17,138H63.46l0-1.26H86.17Z"/><path class="cls-1" d="M62.39,59.51c6.9,0,13-.26,19,.2,1.41.1,3.75,2.61,3.77,4,.25,22,.16,44,.22,66.06,0,3.12-1.13,4.31-4.4,4.53-18.56,1.3-18.56,1.38-18.56-17.31Zm2.71,72.15h1.22V61.61H65.1Z"/></svg>