<svg id="Layer_1" data-name="Layer 1" xmlns="http://www.w3.org/2000/svg" viewBox="0 0 150 150"><defs><style>.cls-1{fill:#fff;fill-rule:evenodd;}</style></defs><title>icons</title><path class="cls-1" d="M130.79,23.32V126.68H19.21V23.32ZM27.69,117.41h94.39V41.5H27.69Z"/><path class="cls-1" d="M101.28,115.1H85.59V99.41h15.69Z"/><path class="cls-1" d="M67.06,115V99.38H82.82V115Z"/><path class="cls-1" d="M64.2,115.13H48.63V99.32H64.2Z"/><path class="cls-1" d="M30.1,99.29H45.81V115H30.1Z"/><path class="cls-1" d="M119.81,80.88V96.52H104.17V80.88Z"/><path class="cls-1" d="M85.6,80.81h15.66V96.47H85.6Z"/><path class="cls-1" d="M82.78,96.6H67.1V80.92H82.78Z"/><path class="cls-1" d="M64.26,96.58H48.63V80.82H64.26Z"/><path class="cls-1" d="M45.81,96.59H30.1V80.9H45.81Z"/><path class="cls-1" d="M119.77,78.11H104.08V62.42h15.69Z"/><path class="cls-1" d="M85.56,62.33H101.3V78H85.56Z"/><path class="cls-1" d="M67.1,62.3H82.78V78H67.1Z"/><path class="cls-1" d="M64.29,78.11H48.6V62.42H64.29Z"/><path class="cls-1" d="M45.84,62.34V78.07H30.15V62.34Z"/><path class="cls-1" d="M119.79,59.6H104.07V43.91h15.72Z"/><path class="cls-1" d="M85.54,59.57V43.86h15.69V59.57Z"/><path class="cls-1" d="M82.85,43.87V59.56H67.15V43.87Z"/><path class="cls-1" d="M64.33,43.89V59.53H48.69V43.89Z"/></svg>