<svg id="Layer_1" data-name="Layer 1" xmlns="http://www.w3.org/2000/svg" viewBox="0 0 150 150"><defs><style>.cls-1{fill:#fff;}</style></defs><path class="cls-1" d="M71.53,111.53a17.86,17.86,0,0,0-7-5.84,8.77,8.77,0,0,0,1.5-1,9.29,9.29,0,1,0-11.76.27,8.62,8.62,0,0,0,1.55,1c-6.11,3-10.69,10.28-10.79,18a2,2,0,0,0,.63,1.47,21.75,21.75,0,0,0,22.51,4.34,4.5,4.5,0,0,1-1.22-3.11A28.81,28.81,0,0,1,71.53,111.53Z"/><path class="cls-1" d="M119.91,105.69a9.29,9.29,0,0,0,4.74-8.09,9.29,9.29,0,1,0-15,7.31,8.36,8.36,0,0,0,1.56,1,18,18,0,0,0-6.58,5.64,28.81,28.81,0,0,1,4.62,15.11,4.5,4.5,0,0,1-1.22,3.11,21.75,21.75,0,0,0,22.51-4.34,2,2,0,0,0,.63-1.47C131.05,116,126.25,108.49,119.91,105.69Z"/><path class="cls-1" d="M93.59,104.11a11.86,11.86,0,0,0,1.93-1.26,11.56,11.56,0,1,0-14.64-.14A11.23,11.23,0,0,0,82.79,104c-7.82,3.54-13.73,12.82-13.87,22.67a2.51,2.51,0,0,0,.79,1.84,27.08,27.08,0,0,0,36.73,0,2.51,2.51,0,0,0,.79-1.84C107.09,116.91,101.3,107.72,93.59,104.11Z"/><path class="cls-1" d="M134.79,14.31H29.41a1.23,1.23,0,0,0-1.23,1.23v7.93a1.23,1.23,0,0,0,1.23,1.23h3.18a1.23,1.23,0,0,0,1.23-1.23V21.18A1.23,1.23,0,0,1,35.05,20h94.1a1.23,1.23,0,0,1,1.23,1.23V73a1.23,1.23,0,0,1-1.23,1.23H46.21A1.23,1.23,0,0,0,45,75.45v3.18a1.23,1.23,0,0,0,1.22,1.23h88.58A1.23,1.23,0,0,0,136,78.63V15.54A1.23,1.23,0,0,0,134.79,14.31Z"/><circle class="cls-1" cx="31.6" cy="41.31" r="11.17" transform="translate(-8.65 8.37) rotate(-13.28)"/><path class="cls-1" d="M64.46,55.08H19.22A5.25,5.25,0,0,0,14,60.32V88.74A6.22,6.22,0,0,0,20.2,95h3.47v6h0v19.43a5.23,5.23,0,0,0,5.23,5.23H34.3a5.23,5.23,0,0,0,5.23-5.23V64.75H64.46a4.83,4.83,0,0,0,4.83-4.83h0A4.84,4.84,0,0,0,64.46,55.08Z"/></svg>