<svg id="Layer_1" data-name="Layer 1" xmlns="http://www.w3.org/2000/svg" viewBox="0 0 150 150"><defs><style>.cls-1,.cls-2{fill:#fff;stroke:#fff;stroke-miterlimit:10;fill-rule:evenodd;}.cls-1{stroke-width:5px;}.cls-2{stroke-width:6px;}</style></defs><title>icons</title><path class="cls-1" d="M12.49,136.84C13.71,127.74,17,120,24.7,114.63c.27-.18.58-.32.84-.51,1.53-1.08,2.78-1.06,4.54,0,8.56,5.37,17.21,5.17,25.69-.29a2.51,2.51,0,0,1,3-.13c6.11,3.31,9.66,8.66,11.91,15,.91,2.54,1.38,5.25,2.1,8.1Z"/><path class="cls-1" d="M25.31,94.61c.08-9.84,7.81-17.28,17.85-17.17A17.37,17.37,0,1,1,25.31,94.61Z"/><path class="cls-2" d="M77.22,134.86c1.23-9.09,4.53-16.85,12.21-22.2.27-.19.58-.32.85-.52,1.52-1.08,2.77-1,4.53,0,8.56,5.38,17.22,5.18,25.7-.28a2.5,2.5,0,0,1,3-.14c6.11,3.31,9.67,8.67,11.92,15,.91,2.55,1.37,5.25,2.1,8.1Z"/><path class="cls-2" d="M90,92.63c.08-9.84,7.81-17.27,17.85-17.17A17.37,17.37,0,1,1,90,92.63Z"/><path class="cls-2" d="M30.13,141C32,127.5,36.83,116,48.21,108.1c.4-.28.85-.48,1.24-.77,2.27-1.59,4.11-1.56,6.72.08,12.66,8,25.48,7.66,38-.43a3.73,3.73,0,0,1,4.39-.2c9,4.9,14.3,12.83,17.63,22.19,1.34,3.77,2,7.77,3.11,12Z"/><path class="cls-2" d="M49.1,78.46c.13-14.57,11.57-25.57,26.42-25.41A25.7,25.7,0,1,1,49.1,78.46Z"/></svg>