<svg id="Layer_1" data-name="Layer 1" xmlns="http://www.w3.org/2000/svg" viewBox="0 0 150 150"><defs><style>.cls-1{fill:#fff;fill-rule:evenodd;}</style></defs><title>icons</title><path class="cls-1" d="M14.27,137.91c2.55-18.86,9.39-34.94,25.33-46,.56-.39,1.2-.67,1.75-1.07,3.17-2.24,5.76-2.19,9.41.11,17.74,11.14,35.71,10.73,53.29-.6,2.28-1.47,3.9-1.5,6.16-.28,12.66,6.87,20,18,24.71,31.09,1.88,5.29,2.85,10.89,4.35,16.8Z"/><path class="cls-1" d="M40.86,50.33c.18-20.41,16.21-35.83,37-35.62C97.28,14.92,113.32,31.48,113,51a36.09,36.09,0,0,1-72.18-.67Z"/></svg>