<svg id="Layer_1" data-name="Layer 1" xmlns="http://www.w3.org/2000/svg" viewBox="0 0 150 150"><defs><style>.cls-1{fill:#fff;}</style></defs><path class="cls-1" d="M95.76,105.48a2.31,2.31,0,0,0-.78-1.11l-.09-.07a2.37,2.37,0,0,0-2.2-.25c-.62.29-25.63,10.6-26.4,10.62h-.11L52.8,113.36a1,1,0,0,1-.83-1.17,1,1,0,0,1,1.06-.92l13.48,1.33c4.09-.7,5.32-7.16-1.19-8.39-4.51-.85-27.16-4.45-27.16-4.45a3.85,3.85,0,0,0-2.3.54l-11.92,6.13,8.24,17.95s5.23-3.5,7.8-2.77l23.68,6a3.76,3.76,0,0,0,2.68-.16s23.81-12.69,25.43-14,3.57-3.07,3.88-3.92A6.4,6.4,0,0,0,96,107,5.83,5.83,0,0,0,95.76,105.48Z"/><path class="cls-1" d="M31.5,126.2l-9-19.39a1.1,1.1,0,0,0-1.47-.54l-10.92,5a1.13,1.13,0,0,0-.54,1.48l9,19.39a1.1,1.1,0,0,0,1.47.54l10.92-5A1.12,1.12,0,0,0,31.5,126.2Zm-8.1,1.51a1.9,1.9,0,1,1,2-1.82A1.9,1.9,0,0,1,23.4,127.71Z"/><path class="cls-1" d="M69.62,52.68a2.12,2.12,0,0,0-1.53,1.89c0,.62.45,1.1,1.53,1.59Z"/><path class="cls-1" d="M70.72,70.24c5.88,0,10.65-5.57,10.65-12.44A14,14,0,0,0,81.1,55a3.73,3.73,0,0,1-2.67-3.2,5.46,5.46,0,0,1,.14-2.43,10,10,0,0,0-7.85-4c-5.88,0-10.66,5.56-10.66,12.43S64.84,70.24,70.72,70.24ZM65.78,54.56a4.55,4.55,0,0,1,3.83-4.28v-1h2.21v1a4.54,4.54,0,0,1,3.83,4.28H73.34a2.13,2.13,0,0,0-1.52-1.89V57c1.58.58,3.83,1.65,3.83,4.1a4.54,4.54,0,0,1-3.83,4.28v1H69.61v-1a4.55,4.55,0,0,1-3.83-4.28h2.31a2.1,2.1,0,0,0,1.52,1.88V58.65C68,58.09,65.78,57,65.78,54.56Z"/><path class="cls-1" d="M73.34,61.05c0-.63-.44-1.11-1.52-1.6v3.48A2.1,2.1,0,0,0,73.34,61.05Z"/><path class="cls-1" d="M45.4,76.44l.2,1.08L47.32,87l5.88-1.08.59,1.53,3.48,9,9-3.48,49-19-3.48-9-5-12.72-.29-.76-2.42.38-5,.77v14.2a8.36,8.36,0,0,0-6.92,6.93H49.25a8.48,8.48,0,0,0-5.55-6.58,10,10,0,0,0-1.38-.35v-18a8.47,8.47,0,0,0,2.7-.93,8.34,8.34,0,0,0,4.23-6H92.19a.31.31,0,0,1,0,.09l4.22-1.29.58-.19a2.16,2.16,0,0,0-.48-.83,3.87,3.87,0,0,0-.91-.47h-56V76.44Zm63.84-10.53A9,9,0,0,0,107,67.82l-.26-1.45-2.37-13v0ZM101.8,54.19l2.3,12.67a8.23,8.23,0,0,0-2.3,1.24ZM97.89,77.76,65.27,90.42a8.39,8.39,0,0,0-9-4l-.4-1,.89-.16Zm-7.68-1.32-2.65.48L76.22,79,56.3,82.62a8.35,8.35,0,0,0-6.49-5.45A7.55,7.55,0,0,0,48.23,77l-.1-.6Z"/><path class="cls-1" d="M80.32,39.55l3-.76c3.27-.84,8.09-2.07,8.25-2.08h.12S96.56,38.3,97.19,39A2.92,2.92,0,0,1,98,41.07s-.11.11-.27.17-10.16,3.09-14.18,4.51c-6.14,2.18-4.71,8.74-1.55,8.39s27.41-4,27.75-4.21l16.29-7-8.24-17.71S112.58,28.68,110,28L92.64,23.78a3.78,3.78,0,0,0-2.67.16L63.23,39.55Z"/><path class="cls-1" d="M118.66,23.83l9,19a1.09,1.09,0,0,0,1.46.52l10.71-5.09a1.09,1.09,0,0,0,.52-1.46l-9-19a1.09,1.09,0,0,0-1.46-.52l-10.71,5.09A1.09,1.09,0,0,0,118.66,23.83Zm8-1.57a1.87,1.87,0,1,1-1.92,1.81A1.87,1.87,0,0,1,126.63,22.26Z"/></svg>