<svg id="Layer_1" data-name="Layer 1" xmlns="http://www.w3.org/2000/svg" viewBox="0 0 2800 1369"><defs><style>.cls-1{fill:#fff;}</style></defs><path class="cls-1" d="M141.17,1339.24H18.85v-616H141.17v246.4h616V723.24h123.2v616H757.17v-246.4h-616Z"/><path class="cls-1" d="M1092.44,723.24v431.2c0,33.44,27.28,60.72,61.6,60.72H1646a62.37,62.37,0,0,0,62.48-60.72V723.24h123.2v431.2c0,101.2-82.72,184.8-185.68,184.8H1154c-102.08,0-185.68-83.6-185.68-184.8V723.24Z"/><path class="cls-1" d="M2597.24,1339.24h-677.6v-616h677.6c101.2,0,183.92,82.72,183.92,184.8,0,47.52-17.6,89.76-46.64,123.2a184.24,184.24,0,0,1,46.64,123.2C2781.16,1255.64,2698.44,1339.24,2597.24,1339.24Zm-554.4-369.6h554.4a61.78,61.78,0,0,0,61.6-61.6c0-33.44-28.16-61.6-61.6-61.6h-554.4Zm0,245.52h554.4c33.44,0,61.6-27.28,61.6-60.72a61.78,61.78,0,0,0-61.6-61.6h-554.4Z"/><path class="cls-1" d="M1958.93,273H1804.71a38.2,38.2,0,0,0-38.56,38v77.67a38.66,38.66,0,0,0,38.56,38.55h154.22c20.93,0,38.55-17.62,38.55-38.55V311C1997.48,290.07,1979.86,273,1958.93,273Z"/><path class="cls-1" d="M808.32,407.94a19.51,19.51,0,0,0,19.28,19.28h212.06V388.67H827.6A19.15,19.15,0,0,0,808.32,407.94Z"/><path class="cls-1" d="M19,30V634H2781V30ZM483.36,273H194.19c-10.47,0-19.28,8.26-19.28,18.73A19.15,19.15,0,0,0,194.19,311H387c53.43,0,96.39,43.52,96.39,96.94,0,52.88-43,95.84-96.39,95.84H97.8V427.22H387a19.52,19.52,0,0,0,19.28-19.28A19.16,19.16,0,0,0,387,388.67H194.19c-53.43,0-96.39-43-96.39-96.94,0-52.88,43-95.84,96.39-95.84H483.36Zm633.41,230.78H827.6c-53.43,0-96.39-43-96.39-95.84,0-53.42,43-96.94,96.39-96.94h212.06a38.2,38.2,0,0,0-38.56-38H731.21V195.89H1001.1c63.89,0,115.67,51.77,115.67,115.11Zm324.41,0h-76.56v-385h76.56ZM2074.6,388.67c0,63.89-51.78,115.11-115.67,115.11H1804.71c-63.9,0-115.67-51.22-115.67-115.11V311c0-63.34,51.77-115.11,115.67-115.11h154.22c63.89,0,115.67,51.77,115.67,115.11ZM2708,503.78h-77.67V311a38.19,38.19,0,0,0-38.55-38H2399V503.78h-76.56V195.89h269.34c63.89,0,116.22,51.77,116.22,115.11Z"/></svg>